<svg width="28" height="15" viewBox="0 0 28 15" fill="none" xmlns="http://www.w3.org/2000/svg">
<path d="M27.4167 7.46191C27.4167 9.05493 26.1101 10.6542 23.6386 11.8899C21.202 13.1082 17.7951 13.8786 14 13.8786C10.2049 13.8786 6.79798 13.1082 4.36138 11.8899C1.88989 10.6542 0.583333 9.05493 0.583333 7.46191C0.583333 5.8689 1.88989 4.26966 4.36138 3.03392C6.79798 1.81562 10.2049 1.04525 14 1.04525C17.7951 1.04525 21.202 1.81562 23.6386 3.03392C26.1101 4.26966 27.4167 5.8689 27.4167 7.46191Z" stroke="#EEEFF2" stroke-width="1.16667"/>
<path d="M11.36 4.104H10.376L8.68 6.904L6.992 4.104H6V9.704H6.92V5.704L8.624 8.528H8.736L10.44 5.712V9.704H11.36V4.104Z" fill="black"/>
<path d="M17.9246 6.808H15.1246V7.632H16.9966C16.9086 8.024 16.7086 8.336 16.3966 8.568C16.0846 8.8 15.6846 8.912 15.1886 8.912C14.5646 8.912 14.0686 8.728 13.6846 8.344C13.3006 7.968 13.1166 7.488 13.1166 6.912C13.1166 6.336 13.3006 5.856 13.6846 5.472C14.0606 5.088 14.5406 4.896 15.1326 4.896C15.4926 4.896 15.8206 4.984 16.1166 5.144C16.4046 5.304 16.6286 5.52 16.7806 5.784L17.5726 5.328C17.3326 4.928 16.9966 4.6 16.5646 4.36C16.1326 4.12 15.6526 4 15.1326 4C14.3006 4 13.5966 4.288 13.0366 4.848C12.4766 5.408 12.1966 6.096 12.1966 6.904C12.1966 7.72 12.4766 8.408 13.0366 8.968C13.5966 9.528 14.3166 9.808 15.1806 9.808C15.9966 9.808 16.6526 9.568 17.1646 9.08C17.6686 8.592 17.9246 7.96 17.9246 7.192V6.808Z" fill="black"/>
<path d="M19.6856 8.824V4.104H18.7656V9.704H21.9656V8.824H19.6856Z" fill="black"/>
</svg>
